<svg xmlns="http://www.w3.org/2000/svg" viewBox="0 0 100 100" width="100" height="100">
    <!-- Vector, analista: una red densa; lo ve casi todo. -->
    <polygon points="50,24 76,44 50,50" fill="#1b4fa0" opacity=".12"/>
    <polygon points="50,50 24,44 50,24" fill="#1b4fa0" opacity=".12"/>
    <polygon points="50,50 76,44 62,76" fill="#1b4fa0" opacity=".18"/>
    <g stroke="#1b4fa0" stroke-width="4" stroke-linecap="round">
      <line x1="50" y1="24" x2="24" y2="44"/><line x1="50" y1="24" x2="76" y2="44"/>
      <line x1="24" y1="44" x2="50" y2="50"/><line x1="76" y1="44" x2="50" y2="50"/>
      <line x1="50" y1="50" x2="38" y2="76"/><line x1="50" y1="50" x2="62" y2="76"/>
      <line x1="38" y1="76" x2="62" y2="76"/><line x1="76" y1="44" x2="62" y2="76"/>
    </g>
    <circle cx="50" cy="24" r="8" fill="#1b4fa0"/><circle cx="24" cy="44" r="7" fill="#1b4fa0"/>
    <circle cx="76" cy="44" r="7" fill="#1b4fa0"/><circle cx="50" cy="50" r="8" fill="#1b4fa0"/>
    <circle cx="38" cy="76" r="7" fill="#1b4fa0"/><circle cx="62" cy="76" r="7" fill="#1b4fa0"/>
</svg>